<?xml version="1.0" encoding="UTF-8" standalone="no" ?>
<!DOCTYPE svg PUBLIC "-//W3C//DTD SVG 1.1//EN" "http://www.w3.org/Graphics/SVG/1.1/DTD/svg11.dtd">
<svg xmlns="http://www.w3.org/2000/svg" xmlns:xlink="http://www.w3.org/1999/xlink" version="1.1" width="296.4" height="494" viewBox="0 0 296.4 494" xml:space="preserve">
<desc>Created with Fabric.js 4.6.0</desc>
<defs>
</defs>
<g transform="matrix(1.31 0 0 1.31 170.37 149.74)" id="0G_5a8e7A99Fit_zwALQ3"  >
<path style="stroke: rgb(12,72,158); stroke-width: 0; stroke-dasharray: none; stroke-linecap: butt; stroke-dashoffset: 0; stroke-linejoin: miter; stroke-miterlimit: 4; fill: rgb(246,189,96); fill-rule: nonzero; opacity: 1;" vector-effect="non-scaling-stroke"  transform=" translate(0, 0)" d="M 0 -48.6527 C 26.85629 -48.6527 48.6527 -26.85629 48.6527 0 C 48.6527 26.85629 26.85629 48.6527 0 48.6527 C -26.85629 48.6527 -48.6527 26.85629 -48.6527 0 C -48.6527 -26.85629 -26.85629 -48.6527 0 -48.6527 z" stroke-linecap="round" />
</g>
<g transform="matrix(1.31 0 0 1.31 150 240.43)" id="-4AvTHFPFaN_XU4CuFsFk"  >
<path style="stroke: rgb(0,0,0); stroke-width: 0; stroke-dasharray: none; stroke-linecap: butt; stroke-dashoffset: 0; stroke-linejoin: miter; stroke-miterlimit: 4; fill: rgb(2,57,63); fill-rule: nonzero; opacity: 1;" vector-effect="non-scaling-stroke"  transform=" translate(0, 0)" d="M 15.34188 30.20276 C 15.34188 30.20276 100.04512 181.00326 99.23374 182.87452000000002 C 98.42236 184.74578000000002 10.791290000000004 182.04285000000002 10.791290000000004 182.04285000000002 L -99.23864999999999 182.04285000000002 L -99.23955 -183.53441 L -53.438019999999995 -183.53441 L -53.438019999999995 -168.26723 L -83.97237 -168.26723 L -83.97237 167.61063 L -68.70519 167.61063 z" stroke-linecap="round" />
</g>
</svg>